<svg width="41" height="41" viewBox="0 0 41 41" fill="none" xmlns="http://www.w3.org/2000/svg">
<rect y="0.5" width="41" height="40" rx="2" fill="white"/>
<g clip-path="url(#clip0_1078_3537)">
<path d="M36.9889 37.5001L36.9974 37.4987V25.0292C36.9974 18.9291 35.6841 14.23 28.5526 14.23C25.1243 14.23 22.8236 16.1113 21.8844 17.8949H21.7852V14.7995H15.0234V37.4987H22.0643V26.2589C22.0643 23.2995 22.6253 20.4378 26.2902 20.4378C29.9013 20.4378 29.9551 23.8151 29.9551 26.4487V37.5001H36.9889Z" fill="#0090DB"/>
<path d="M3.5625 14.8008H10.6118V37.5H3.5625V14.8008Z" fill="#0090DB"/>
<path d="M7.08283 3.5C4.82892 3.5 3 5.32892 3 7.58283C3 9.83675 4.82892 11.7039 7.08283 11.7039C9.33675 11.7039 11.1657 9.83675 11.1657 7.58283C11.1642 5.32892 9.33533 3.5 7.08283 3.5Z" fill="#0090DB"/>
</g>
<defs>
<clipPath id="clip0_1078_3537">
<rect width="34" height="34" fill="white" transform="translate(3 3.5)"/>
</clipPath>
</defs>
</svg>
